<svg width="18" height="22" viewBox="0 0 18 22" fill="none" xmlns="http://www.w3.org/2000/svg">
<path d="M4.63118 21.0771C6.38417 21.0972 8.13641 21.1174 9.8894 21.1376C9.98575 21.1511 10.1336 21.16 10.3077 21.1256C10.4847 21.0905 10.6191 21.024 10.7035 20.9739C11.0038 20.6271 11.304 20.281 11.6036 19.9341C13.1848 18.194 14.3402 16.8993 14.7548 16.4501C14.8354 16.3626 15.0505 16.1317 15.0446 15.8274C15.0401 15.583 14.8967 15.3894 14.7846 15.2713C14.1199 14.5455 13.4551 13.8197 12.7904 13.0938C12.6873 12.9952 12.5058 12.8517 12.2765 12.8517C12.0726 12.8517 11.9016 12.9653 11.7626 13.0938C11.3787 13.4504 8.46281 16.5129 4.51018 20.7153C4.44371 20.7796 4.42429 20.8775 4.46089 20.9575C4.50869 21.0606 4.6252 21.0763 4.63118 21.0771Z" fill="#9306FF"/>
<path d="M12.6208 0.0725241C10.8678 0.0523418 9.11553 0.0321597 7.36255 0.0119774C7.26619 -0.00147744 7.11831 -0.0104471 6.94428 0.0239376C6.76726 0.0590697 6.63282 0.125596 6.54842 0.175678C6.24816 0.522515 5.94791 0.868604 5.6484 1.21544C4.0672 2.9556 2.91173 4.25026 2.4972 4.6995C2.41653 4.78696 2.20142 5.01793 2.2074 5.32216C2.21188 5.56659 2.35529 5.76019 2.46732 5.87829C3.13207 6.60411 3.79681 7.32993 4.46156 8.05574C4.56463 8.15441 4.74613 8.29793 4.97543 8.29793C5.17934 8.29793 5.35038 8.18431 5.4893 8.05574C5.87321 7.69919 8.78914 4.63671 12.7418 0.43431C12.8082 0.370026 12.8277 0.272105 12.7911 0.192123C12.744 0.0889694 12.6267 0.0732716 12.6208 0.0725241Z" fill="#9306FF"/>
<path d="M10.8677 4.81236C10.8737 4.80489 10.9215 4.74658 10.9917 4.67408C11.047 4.61727 11.2539 4.40423 11.4906 4.29286C11.717 4.18671 11.9276 4.19568 12.0396 4.19568C13.6111 4.19568 15.1826 4.19568 16.7541 4.19568C16.9311 4.19344 17.0924 4.29734 17.1619 4.45731C17.2441 4.64567 17.1051 4.87291 17.0566 4.95214C16.6787 5.57406 8.63522 13.946 6.62006 16.0412C6.48711 16.187 6.19358 16.4635 5.74245 16.5607C5.60726 16.5898 5.48327 16.5973 5.37646 16.5951C3.67949 16.61 1.98177 16.625 0.284802 16.6407C0.26613 16.6384 0.118989 16.616 0.0420577 16.483C-0.0236701 16.3701 -0.0117198 16.2221 0.0734276 16.1115C7.48573 8.38388 10.7056 5.0097 10.8677 4.81236Z" fill="#9306FF"/>
</svg>
