<svg width="22" height="22" viewBox="0 0 22 22" fill="none" xmlns="http://www.w3.org/2000/svg">
<path d="M10.5 21C15.7467 21 20 16.7467 20 11.5C20 6.25329 15.7467 2 10.5 2C5.25329 2 1 6.25329 1 11.5C1 16.7467 5.25329 21 10.5 21Z" stroke="#1A1A1A" stroke-width="1.5" stroke-linecap="round" stroke-linejoin="round"/>
<path d="M8.33252 8.25C8.54803 7.63737 8.97341 7.12077 9.53331 6.79171C10.0932 6.46265 10.7515 6.34236 11.3916 6.45216C12.0317 6.56195 12.6123 6.89473 13.0305 7.39157C13.4487 7.88841 13.6777 8.51723 13.6767 9.16667C13.6767 11 10.9267 11.9167 10.9267 11.9167" stroke="#1A1A1A" stroke-width="1.5" stroke-linecap="round" stroke-linejoin="round"/>
<path d="M11 15.5833H11.0083" stroke="#1A1A1A" stroke-width="1.5" stroke-linecap="round" stroke-linejoin="round"/>
</svg>
