<svg width="18" height="18" viewBox="0 0 18 18" fill="none" xmlns="http://www.w3.org/2000/svg">
<path fill-rule="evenodd" clip-rule="evenodd" d="M9.00006 0.666992C6.73688 0.666992 6.45306 0.676585 5.56426 0.71714C4.67724 0.757596 4.07149 0.898481 3.5414 1.1045C2.99344 1.31743 2.52868 1.60237 2.0654 2.06565C1.60213 2.52896 1.31718 2.99369 1.10422 3.54168C0.898203 4.07174 0.757352 4.67752 0.716863 5.5645C0.676308 6.45334 0.666748 6.7371 0.666748 9.00031C0.666748 11.2635 0.676308 11.5473 0.716863 12.4361C0.757352 13.3231 0.898203 13.9289 1.10422 14.459C1.31718 15.0069 1.60213 15.4717 2.0654 15.935C2.52868 16.3983 2.99344 16.6832 3.5414 16.8962C4.07149 17.1022 4.67724 17.2431 5.56426 17.2835C6.45306 17.3241 6.73688 17.3337 9.00006 17.3337C11.2633 17.3337 11.547 17.3241 12.4359 17.2835C13.3229 17.2431 13.9286 17.1022 14.4587 16.8962C15.0067 16.6832 15.4715 16.3983 15.9347 15.935C16.398 15.4717 16.6829 15.007 16.8959 14.459C17.1019 13.9289 17.2428 13.3231 17.2832 12.4361C17.3238 11.5473 17.3334 11.2635 17.3334 9.00031C17.3334 6.73713 17.3238 6.45334 17.2832 5.5645C17.2428 4.67752 17.1019 4.07174 16.8959 3.54168C16.6829 2.99369 16.398 2.52896 15.9347 2.06565C15.4715 1.60237 15.0067 1.31743 14.4587 1.1045C13.9286 0.898481 13.3229 0.757596 12.4359 0.71714C11.547 0.676585 11.2633 0.666992 9.00006 0.666992ZM9.00006 2.16849C11.2252 2.16849 11.4887 2.17696 12.3674 2.21705C13.1799 2.25413 13.6212 2.38989 13.9148 2.50401C14.3038 2.65519 14.5814 2.83577 14.873 3.12736C15.1646 3.41898 15.3452 3.69659 15.4964 4.08556C15.6105 4.37921 15.7462 4.82049 15.7833 5.63294C15.8234 6.51166 15.8319 6.77524 15.8319 9.00031C15.8319 11.2254 15.8234 11.489 15.7833 12.3677C15.7462 13.1802 15.6105 13.6214 15.4964 13.9151C15.3452 14.304 15.1646 14.5817 14.873 14.8733C14.5814 15.1649 14.3038 15.3455 13.9148 15.4966C13.6212 15.6107 13.1799 15.7465 12.3674 15.7836C11.4888 15.8237 11.2253 15.8322 9.00006 15.8322C6.77479 15.8322 6.51128 15.8237 5.6327 15.7836C4.82021 15.7465 4.37893 15.6107 4.08529 15.4966C3.69634 15.3455 3.41871 15.1649 3.12715 14.8733C2.83552 14.5817 2.65491 14.304 2.50374 13.9151C2.38965 13.6214 2.25389 13.1802 2.21681 12.3677C2.17672 11.489 2.16825 11.2254 2.16825 9.00031C2.16825 6.77524 2.17672 6.51166 2.21681 5.63294C2.25389 4.82049 2.38965 4.37921 2.50374 4.08556C2.65491 3.69659 2.83552 3.41898 3.12711 3.12739C3.41871 2.83576 3.69634 2.65519 4.08529 2.50401C4.37893 2.38989 4.82021 2.25413 5.63267 2.21705C6.51142 2.17696 6.77496 2.16849 9.00006 2.16849ZM9.00006 11.7781C7.46595 11.7781 6.22227 10.5344 6.22227 9.00031C6.22227 7.46619 7.46595 6.22255 9.00006 6.22255C10.5342 6.22255 11.7779 7.46619 11.7779 9.00031C11.7779 10.5344 10.5342 11.7781 9.00006 11.7781ZM9.00006 4.72105C6.63669 4.72105 4.72077 6.63693 4.72077 9.00031C4.72077 11.3637 6.63669 13.2796 9.00006 13.2796C11.3634 13.2796 13.2793 11.3637 13.2793 9.00031C13.2793 6.63693 11.3634 4.72105 9.00006 4.72105ZM14.4484 4.55197C14.4484 5.10427 14.0007 5.55196 13.4484 5.55196C12.8961 5.55196 12.4484 5.10427 12.4484 4.55197C12.4484 3.99968 12.8961 3.55196 13.4484 3.55196C14.0007 3.55196 14.4484 3.99968 14.4484 4.55197Z" fill="#501380"/>
</svg>
