<svg width="14" height="12" viewBox="0 0 14 12" fill="none" xmlns="http://www.w3.org/2000/svg">
<path d="M14 1.62511V10.3751C14 10.8717 13.6216 11.2501 13.125 11.2501H12.25V3.30905L7 7.0803L1.75 3.30905V11.2501H0.875C0.378438 11.2501 0 10.8717 0 10.3751V1.62511C0 1.37661 0.093625 1.15786 0.250688 1.00299C0.332488 0.921141 0.429909 0.856579 0.53716 0.813138C0.64441 0.769696 0.7593 0.748262 0.875 0.75011H1.16681L7 4.97942L12.8332 0.75011H13.125C13.3735 0.75011 13.5922 0.843735 13.7493 1.00299C13.9064 1.15786 14 1.37661 14 1.62511Z" fill="#501380"/>
</svg>
