<svg width="84" height="23" viewBox="0 0 84 23" fill="none" xmlns="http://www.w3.org/2000/svg">
<path d="M11.1406 20.166C12.8268 20.166 14.3581 19.7513 15.7344 18.9219C17.1107 18.0833 18.2044 16.9714 19.0156 15.5859C19.8359 14.1914 20.2461 12.651 20.2461 10.9648C20.2461 9.6888 20.0091 8.49479 19.5352 7.38281C19.0703 6.27083 18.4186 5.29557 17.5801 4.45703C16.7507 3.60938 15.7845 2.94857 14.6816 2.47461C13.5788 2.00065 12.3984 1.76367 11.1406 1.76367C9.47266 1.76367 7.95052 2.17383 6.57422 2.99414C5.19792 3.81445 4.09505 4.92188 3.26562 6.31641C2.44531 7.70182 2.03516 9.2513 2.03516 10.9648C2.03516 12.6602 2.44531 14.2051 3.26562 15.5996C4.08594 16.985 5.18424 18.0924 6.56055 18.9219C7.93685 19.7513 9.46354 20.166 11.1406 20.166ZM11.1406 21.8477C9.16276 21.8477 7.35352 21.36 5.71289 20.3848C4.08138 19.4004 2.78255 18.0833 1.81641 16.4336C0.85026 14.7839 0.367188 12.9609 0.367188 10.9648C0.367188 8.95964 0.85026 7.13216 1.81641 5.48242C2.79167 3.83268 4.09505 2.52018 5.72656 1.54492C7.35807 0.569661 9.16276 0.0820312 11.1406 0.0820312C13.1276 0.0820312 14.9368 0.574219 16.5684 1.55859C18.1999 2.53385 19.4987 3.84635 20.4648 5.49609C21.431 7.13672 21.9141 8.95964 21.9141 10.9648C21.9141 12.9518 21.431 14.7702 20.4648 16.4199C19.5078 18.0697 18.2135 19.3867 16.582 20.3711C14.9505 21.3555 13.1367 21.8477 11.1406 21.8477ZM36.0508 22.0254C34.0911 22.0254 32.291 21.5332 30.6504 20.5488C29.0189 19.5553 27.7155 18.2383 26.7402 16.5977C25.765 14.9479 25.2773 13.1296 25.2773 11.1426C25.2773 9.1556 25.765 7.33724 26.7402 5.6875C27.7155 4.03776 29.0189 2.7207 30.6504 1.73633C32.291 0.751953 34.0911 0.259766 36.0508 0.259766C37.4362 0.259766 38.7031 0.496745 39.8516 0.970703C41 1.43555 42.1667 2.13737 43.3516 3.07617L42.3262 4.40234C41.6699 3.88281 41.1003 3.47721 40.6172 3.18555C40.1432 2.88477 39.61 2.63411 39.0176 2.43359C38.0697 2.10547 37.0807 1.94141 36.0508 1.94141C34.3555 1.94141 32.8197 2.35156 31.4434 3.17188C30.0671 3.99219 28.9733 5.09961 28.1621 6.49414C27.3509 7.87956 26.9453 9.42904 26.9453 11.1426C26.9453 12.8561 27.3509 14.4102 28.1621 15.8047C28.9733 17.1901 30.0671 18.293 31.4434 19.1133C32.8288 19.9336 34.3646 20.3438 36.0508 20.3438C37.1901 20.3438 38.2884 20.1387 39.3457 19.7285C40.4121 19.3184 41.3874 18.6986 42.2715 17.8691L42.873 17.2949L44.0215 18.5254C43.3014 19.1999 42.6406 19.7513 42.0391 20.1797C41.4466 20.599 40.7676 20.959 40.002 21.2598C38.7259 21.7702 37.4089 22.0254 36.0508 22.0254ZM48.4512 21.4102H46.7695V1.46289H48.4512V21.4102ZM55.2324 21.4102H53.5645V7.58789H55.2324V21.4102ZM54.3984 6.80859C54.0977 6.80859 53.8333 6.69922 53.6055 6.48047C53.3867 6.2526 53.2773 5.98372 53.2773 5.67383C53.2773 5.37305 53.3822 5.10872 53.5918 4.88086C53.8105 4.65299 54.0794 4.53906 54.3984 4.53906C54.6992 4.53906 54.9635 4.64844 55.1914 4.86719C55.4193 5.07682 55.5332 5.3457 55.5332 5.67383C55.5332 5.97461 55.4238 6.23893 55.2051 6.4668C54.9863 6.69466 54.7174 6.80859 54.3984 6.80859ZM65.4863 21.3418C64.7116 21.3418 63.9414 21.2142 63.1758 20.959C62.4193 20.6947 61.7083 20.2982 61.043 19.7695C59.4753 18.4661 58.5729 16.8529 58.3359 14.9297C58.2995 14.638 58.2812 14.3418 58.2812 14.041C58.2812 13.2572 58.4043 12.4824 58.6504 11.7168C58.9056 10.9512 59.2975 10.2311 59.8262 9.55664C61.1204 7.96159 62.7246 7.04557 64.6387 6.80859C64.9303 6.78125 65.2129 6.76758 65.4863 6.76758C66.2702 6.76758 67.0404 6.89518 67.7969 7.15039C68.5625 7.4056 69.278 7.79297 69.9434 8.3125L70.6133 8.81836L69.5742 10.1719L68.918 9.625C68.4167 9.23307 67.8743 8.94141 67.291 8.75C66.7077 8.54948 66.1198 8.44922 65.5273 8.44922C65.2995 8.44922 65.0671 8.46289 64.8301 8.49023C63.3717 8.66341 62.1413 9.36523 61.1387 10.5957C60.7467 11.1061 60.4505 11.6576 60.25 12.25C60.0586 12.8333 59.9629 13.4258 59.9629 14.0273C59.9629 14.2643 59.9766 14.5013 60.0039 14.7383C60.1771 16.2148 60.8698 17.459 62.082 18.4707C62.5924 18.8717 63.1439 19.1725 63.7363 19.373C64.3288 19.5645 64.9258 19.6602 65.5273 19.6602C65.737 19.6602 65.9512 19.6465 66.1699 19.6191C67.6283 19.4368 68.8587 18.7305 69.8613 17.5L70.3809 16.8301L71.6934 17.8828L71.1875 18.5527C69.8932 20.1387 68.2891 21.0501 66.375 21.2871C66.0833 21.3236 65.7871 21.3418 65.4863 21.3418ZM81.8926 21.4102C81.1999 20.2344 80.6895 19.373 80.3613 18.8262C80.0423 18.2793 79.7962 17.86 79.623 17.5684C79.4499 17.2767 79.2858 16.9941 79.1309 16.7207C78.9668 16.429 78.7253 16.0143 78.4062 15.4766C78.0964 14.9297 77.7181 14.278 77.2715 13.5215L76.1094 14.834V21.4102H74.4414V1.46289H76.1094V12.3184C76.3464 12.054 76.6289 11.735 76.957 11.3613C77.2943 10.9785 77.5404 10.7005 77.6953 10.5273C77.832 10.3633 77.9733 10.1947 78.1191 10.0215C78.2741 9.84831 78.502 9.58854 78.8027 9.24219C79.1126 8.89583 79.6094 8.33984 80.293 7.57422L82.4668 7.60156C81.6191 8.60417 81.0723 9.24674 80.8262 9.5293C80.5801 9.80273 80.3932 10.0124 80.2656 10.1582C80.138 10.2949 80.0059 10.4362 79.8691 10.582C79.7507 10.7279 79.5684 10.9375 79.3223 11.2109C79.0762 11.4844 78.7845 11.8171 78.4473 12.209L83.8066 21.3828L81.8926 21.4102Z" fill="#1A1A1A"/>
<path d="M15.7344 18.9219L15.8892 19.1788L15.8905 19.1781L15.7344 18.9219ZM19.0156 15.5859L18.757 15.4338L18.7567 15.4344L19.0156 15.5859ZM19.5352 7.38281L19.2584 7.49852L19.2592 7.50044L19.5352 7.38281ZM17.5801 4.45703L17.3656 4.66686L17.3679 4.66916L17.5801 4.45703ZM14.6816 2.47461L14.5632 2.75023L14.6816 2.47461ZM3.26562 6.31641L3.00778 6.16305L3.00748 6.16356L3.26562 6.31641ZM3.26562 15.5996L3.00704 15.7517L3.00748 15.7525L3.26562 15.5996ZM6.56055 18.9219L6.7154 18.6649L6.56055 18.9219ZM5.71289 20.3848L5.55791 20.6416L5.5596 20.6426L5.71289 20.3848ZM1.81641 16.4336L1.55753 16.5852L1.81641 16.4336ZM1.81641 5.48242L1.55815 5.32975L1.55753 5.33082L1.81641 5.48242ZM5.72656 1.54492L5.57264 1.28742L5.72656 1.54492ZM16.5684 1.55859L16.4134 1.81546L16.4144 1.8161L16.5684 1.55859ZM20.4648 5.49609L20.206 5.6477L20.2063 5.64832L20.4648 5.49609ZM20.4648 16.4199L20.206 16.2683L20.2053 16.2694L20.4648 16.4199ZM11.1406 20.466C12.8786 20.466 14.4638 20.0378 15.8892 19.1788L15.5795 18.6649C14.2523 19.4648 12.7751 19.866 11.1406 19.866V20.466ZM15.8905 19.1781C17.309 18.3138 18.4381 17.1659 19.2745 15.7375L18.7567 15.4344C17.9707 16.7768 16.9124 17.8529 15.5783 18.6657L15.8905 19.1781ZM19.2742 15.738C20.1228 14.2954 20.5461 12.7022 20.5461 10.9648H19.9461C19.9461 12.5999 19.5491 14.0874 18.757 15.4338L19.2742 15.738ZM20.5461 10.9648C20.5461 9.65066 20.3018 8.4164 19.8111 7.26518L19.2592 7.50044C19.7164 8.57318 19.9461 9.72694 19.9461 10.9648H20.5461ZM19.8119 7.26711C19.3323 6.11968 18.6588 5.11152 17.7922 4.2449L17.3679 4.66916C18.1784 5.47962 18.8083 6.42198 19.2584 7.49852L19.8119 7.26711ZM17.7945 4.24722C16.9373 3.37122 15.9385 2.68821 14.8001 2.19898L14.5632 2.75023C15.6305 3.20892 16.564 3.84753 17.3657 4.66685L17.7945 4.24722ZM14.8001 2.19898C13.658 1.70818 12.4372 1.46367 11.1406 1.46367V2.06367C12.3597 2.06367 13.4995 2.29312 14.5632 2.75023L14.8001 2.19898ZM11.1406 1.46367C9.4209 1.46367 7.84533 1.88728 6.42062 2.73644L6.72781 3.25184C8.05571 2.46038 9.52441 2.06367 11.1406 2.06367V1.46367ZM6.42062 2.73644C5.00087 3.58265 3.8624 4.72617 3.00778 6.16305L3.52347 6.46976C4.32771 5.11758 5.39497 4.04625 6.72781 3.25184L6.42062 2.73644ZM3.00748 6.16356C2.158 7.59825 1.73516 9.20111 1.73516 10.9648H2.33516C2.33516 9.30149 2.73263 7.8054 3.52377 6.46925L3.00748 6.16356ZM1.73516 10.9648C1.73516 12.711 2.15829 14.3088 3.00704 15.7517L3.52421 15.4475C2.73233 14.1013 2.33516 12.6093 2.33516 10.9648H1.73516ZM3.00748 15.7525C3.85303 17.1805 4.9868 18.3237 6.4057 19.1788L6.7154 18.6649C5.38169 17.8612 4.31884 16.7896 3.52377 15.4468L3.00748 15.7525ZM6.4057 19.1788C7.83083 20.0377 9.41146 20.466 11.1406 20.466V19.866C9.51562 19.866 8.04287 19.4649 6.7154 18.6649L6.4057 19.1788ZM11.1406 21.5477C9.21467 21.5477 7.4587 21.0735 5.86618 20.1269L5.5596 20.6426C7.24833 21.6465 9.11085 22.1477 11.1406 22.1477V21.5477ZM5.86787 20.1279C4.27938 19.1695 3.01621 17.8887 2.07528 16.282L1.55753 16.5852C2.54889 18.278 3.88338 19.6313 5.55791 20.6416L5.86787 20.1279ZM2.07528 16.282C1.13728 14.6803 0.667187 12.9101 0.667187 10.9648H0.0671875C0.0671875 13.0118 0.563244 14.8874 1.55753 16.5852L2.07528 16.282ZM0.667187 10.9648C0.667187 9.01021 1.1374 7.2355 2.07528 5.63403L1.55753 5.33082C0.563117 7.02883 0.0671875 8.90906 0.0671875 10.9648H0.667187ZM2.07466 5.63509C3.02465 4.02808 4.29233 2.75177 5.88049 1.80242L5.57264 1.28742C3.89778 2.28859 2.55868 3.63728 1.55816 5.32976L2.07466 5.63509ZM5.88049 1.80242C7.46354 0.856132 9.21467 0.382031 11.1406 0.382031V-0.217969C9.11085 -0.217969 7.25261 0.283192 5.57264 1.28742L5.88049 1.80242ZM11.1406 0.382031C13.0754 0.382031 14.8307 0.860542 16.4134 1.81546L16.7233 1.30173C15.043 0.287895 13.1798 -0.217969 11.1406 -0.217969V0.382031ZM16.4144 1.8161C18.0023 2.76529 19.2652 4.04126 20.206 5.6477L20.7237 5.34449C19.7322 3.65145 18.3974 2.30241 16.7223 1.30109L16.4144 1.8161ZM20.2063 5.64832C21.1439 7.24033 21.6141 9.01021 21.6141 10.9648H22.2141C22.2141 8.90906 21.7181 7.03311 20.7234 5.34386L20.2063 5.64832ZM21.6141 10.9648C21.6141 12.9007 21.1441 14.6664 20.206 16.2683L20.7237 16.5715C21.7179 14.874 22.2141 13.0029 22.2141 10.9648H21.6141ZM20.2053 16.2694C19.2736 17.8755 18.0153 19.156 16.427 20.1142L16.737 20.628C18.4118 19.6175 19.742 18.2638 20.7243 16.5705L20.2053 16.2694ZM16.427 20.1142C14.8446 21.069 13.0848 21.5477 11.1406 21.5477V22.1477C13.1886 22.1477 15.0565 21.6419 16.737 20.628L16.427 20.1142ZM30.6504 20.5488L30.4944 20.8051L30.496 20.8061L30.6504 20.5488ZM26.7402 16.5977L26.482 16.7503L26.4824 16.7509L26.7402 16.5977ZM26.7402 5.6875L26.9985 5.84017L26.7402 5.6875ZM30.6504 1.73633L30.496 1.47908L30.4954 1.47946L30.6504 1.73633ZM39.8516 0.970703L39.7371 1.24802L39.739 1.24879L39.8516 0.970703ZM43.3516 3.07617L43.5889 3.25968L43.7702 3.02514L43.5379 2.84103L43.3516 3.07617ZM42.3262 4.40234L42.14 4.63756L42.3779 4.82591L42.5635 4.58585L42.3262 4.40234ZM40.6172 3.18555L40.4564 3.43891L40.4621 3.44237L40.6172 3.18555ZM39.0176 2.43359L38.9194 2.7171L38.9214 2.71776L39.0176 2.43359ZM28.1621 6.49414L28.421 6.64573L28.4214 6.64499L28.1621 6.49414ZM28.1621 15.8047L27.9028 15.9555L27.9032 15.9563L28.1621 15.8047ZM31.4434 19.1133L31.2898 19.371L31.2905 19.3714L31.4434 19.1133ZM39.3457 19.7285L39.238 19.4485L39.2372 19.4488L39.3457 19.7285ZM42.2715 17.8691L42.4767 18.0879L42.4786 18.0861L42.2715 17.8691ZM42.873 17.2949L43.0924 17.0902L42.8854 16.8684L42.6659 17.0779L42.873 17.2949ZM44.0215 18.5254L44.2266 18.7443L44.4451 18.5396L44.2408 18.3207L44.0215 18.5254ZM42.0391 20.1797L42.2124 20.4246L42.2131 20.4241L42.0391 20.1797ZM40.002 21.2598L39.8923 20.9805L39.8905 20.9812L40.002 21.2598ZM36.0508 21.7254C34.1441 21.7254 32.3976 21.2473 30.8047 20.2916L30.496 20.8061C32.1845 21.8191 34.0382 22.3254 36.0508 22.3254V21.7254ZM30.8064 20.2926C29.2167 19.3246 27.9483 18.0428 26.9981 16.4444L26.4824 16.7509C27.4827 18.4337 28.821 19.7861 30.4944 20.8051L30.8064 20.2926ZM26.9985 16.445C26.0516 14.8432 25.5773 13.0779 25.5773 11.1426H24.9773C24.9773 13.1812 25.4784 15.0526 26.482 16.7503L26.9985 16.445ZM25.5773 11.1426C25.5773 9.20724 26.0516 7.44193 26.9985 5.84017L26.482 5.53483C25.4784 7.23256 24.9773 9.10396 24.9773 11.1426H25.5773ZM26.9985 5.84017C27.9486 4.23291 29.2166 2.95176 30.8054 1.9932L30.4954 1.47946C28.8211 2.48964 27.4824 3.84261 26.482 5.53483L26.9985 5.84017ZM30.8047 1.99358C32.3976 1.03788 34.1441 0.559766 36.0508 0.559766V-0.0402346C34.0382 -0.0402346 32.1845 0.466026 30.496 1.47908L30.8047 1.99358ZM36.0508 0.559766C37.4015 0.559766 38.6289 0.790669 39.7371 1.24802L39.966 0.693391C38.7773 0.202821 37.4709 -0.0402346 36.0508 -0.0402346V0.559766ZM39.739 1.24879C40.8559 1.70085 41.998 2.38651 43.1653 3.31131L43.5379 2.84103C42.3353 1.88823 41.1441 1.17024 39.9641 0.692619L39.739 1.24879ZM43.1142 2.89267L42.0888 4.21884L42.5635 4.58585L43.5889 3.25968L43.1142 2.89267ZM42.5124 4.16713C41.8505 3.64311 41.27 3.22924 40.7722 2.92873L40.4621 3.44237C40.9306 3.72519 41.4894 4.12251 42.14 4.63756L42.5124 4.16713ZM40.7779 2.93225C40.2816 2.61728 39.7263 2.35676 39.1138 2.14943L38.9214 2.71776C39.4937 2.91146 40.0048 3.15226 40.4564 3.43885L40.7779 2.93225ZM39.1157 2.1501C38.1354 1.81075 37.1132 1.64141 36.0508 1.64141V2.24141C37.0482 2.24141 38.0039 2.40018 38.9194 2.71709L39.1157 2.1501ZM36.0508 1.64141C34.3047 1.64141 32.7152 2.06455 31.2898 2.91418L31.597 3.42957C32.9241 2.63857 34.4063 2.24141 36.0508 2.24141V1.64141ZM31.2898 2.91418C29.8694 3.76075 28.7394 4.90507 27.9028 6.3433L28.4214 6.64499C29.2072 5.29415 30.2647 4.22363 31.597 3.42957L31.2898 2.91418ZM27.9032 6.34256C27.0633 7.77706 26.6453 9.37947 26.6453 11.1426H27.2453C27.2453 9.4786 27.6385 7.98205 28.421 6.64573L27.9032 6.34256ZM26.6453 11.1426C26.6453 12.9057 27.0633 14.5123 27.9028 15.9555L28.4214 15.6538C27.6385 14.308 27.2453 12.8065 27.2453 11.1426H26.6453ZM27.9032 15.9563C28.7399 17.3853 29.8699 18.5247 31.2898 19.371L31.597 18.8556C30.2642 18.0612 29.2067 16.9949 28.421 15.6531L27.9032 15.9563ZM31.2905 19.3714C32.7244 20.2205 34.3135 20.6437 36.0508 20.6437V20.0438C34.4157 20.0438 32.9331 19.6467 31.5962 18.8551L31.2905 19.3714ZM36.0508 20.6437C37.227 20.6437 38.3621 20.4319 39.4542 20.0082L39.2372 19.4488C38.2147 19.8455 37.1532 20.0438 36.0508 20.0438V20.6437ZM39.4534 20.0085C40.5581 19.5836 41.5661 18.9422 42.4767 18.0879L42.0662 17.6504C41.2086 18.4549 40.2661 19.0531 39.238 19.4485L39.4534 20.0085ZM42.4786 18.0861L43.0802 17.5119L42.6659 17.0779L42.0643 17.6521L42.4786 18.0861ZM42.6537 17.4996L43.8022 18.7301L44.2408 18.3207L43.0924 17.0902L42.6537 17.4996ZM43.8164 18.3064C43.1031 18.9746 42.4528 19.5168 41.865 19.9353L42.2131 20.4241C42.8285 19.9858 43.4998 19.4251 44.2266 18.7443L43.8164 18.3064ZM41.8658 19.9348C41.2955 20.3384 40.6383 20.6874 39.8923 20.9805L40.1116 21.539C40.8968 21.2305 41.5978 20.8595 42.2124 20.4246L41.8658 19.9348ZM39.8905 20.9812C38.6495 21.4776 37.3702 21.7254 36.0508 21.7254V22.3254C37.4475 22.3254 38.8023 22.0627 40.1134 21.5383L39.8905 20.9812ZM48.4512 21.4102V21.7102H48.7512V21.4102H48.4512ZM46.7695 21.4102H46.4695V21.7102H46.7695V21.4102ZM46.7695 1.46289V1.16289H46.4695V1.46289H46.7695ZM48.4512 1.46289H48.7512V1.16289H48.4512V1.46289ZM48.4512 21.1102H46.7695V21.7102H48.4512V21.1102ZM47.0695 21.4102V1.46289H46.4695V21.4102H47.0695ZM46.7695 1.76289H48.4512V1.16289H46.7695V1.76289ZM48.1512 1.46289V21.4102H48.7512V1.46289H48.1512ZM55.2324 21.4102V21.7102H55.5324V21.4102H55.2324ZM53.5645 21.4102H53.2645V21.7102H53.5645V21.4102ZM53.5645 7.58789V7.28789H53.2645V7.58789H53.5645ZM55.2324 7.58789H55.5324V7.28789H55.2324V7.58789ZM53.6055 6.48047L53.3889 6.6884L53.3977 6.69688L53.6055 6.48047ZM53.5918 4.88086L53.3753 4.67305L53.371 4.67774L53.5918 4.88086ZM55.1914 4.86719L54.9836 5.08365L54.9883 5.08797L55.1914 4.86719ZM55.2324 21.1102H53.5645V21.7102H55.2324V21.1102ZM53.8645 21.4102V7.58789H53.2645V21.4102H53.8645ZM53.5645 7.88789H55.2324V7.28789H53.5645V7.88789ZM54.9324 7.58789V21.4102H55.5324V7.58789H54.9324ZM54.3984 6.50859C54.1793 6.50859 53.9883 6.43214 53.8132 6.26405L53.3977 6.69688C53.6783 6.96629 54.016 7.10859 54.3984 7.10859V6.50859ZM53.8219 6.27271C53.6556 6.09951 53.5773 5.90463 53.5773 5.67383H52.9773C52.9773 6.06282 53.1178 6.40569 53.3891 6.68823L53.8219 6.27271ZM53.5773 5.67383C53.5773 5.4507 53.6522 5.25826 53.8126 5.08398L53.371 4.67774C53.1121 4.95918 52.9773 5.29539 52.9773 5.67383H53.5773ZM53.8082 5.08862C53.9698 4.92034 54.1602 4.83906 54.3984 4.83906V4.23906C53.9987 4.23906 53.6513 4.38565 53.3754 4.6731L53.8082 5.08862ZM54.3984 4.83906C54.6176 4.83906 54.8086 4.91551 54.9836 5.0836L55.3992 4.65077C55.1185 4.38136 54.7809 4.23906 54.3984 4.23906V4.83906ZM54.9883 5.08797C55.1504 5.23709 55.2332 5.42397 55.2332 5.67383H55.8332C55.8332 5.26744 55.6882 4.91656 55.3945 4.64641L54.9883 5.08797ZM55.2332 5.67383C55.2332 5.89297 55.1568 6.08394 54.9887 6.25904L55.4215 6.67456C55.6909 6.39392 55.8332 6.05625 55.8332 5.67383H55.2332ZM54.9887 6.25904C54.8271 6.42731 54.6367 6.50859 54.3984 6.50859V7.10859C54.7982 7.10859 55.1455 6.96201 55.4215 6.67456L54.9887 6.25904ZM63.1758 20.959L63.0768 21.2422L63.0809 21.2436L63.1758 20.959ZM61.043 19.7695L60.8511 20.0003L60.8563 20.0044L61.043 19.7695ZM58.3359 14.9297L58.6337 14.893L58.6336 14.8925L58.3359 14.9297ZM58.6504 11.7168L58.3658 11.6219L58.3648 11.625L58.6504 11.7168ZM59.8262 9.55664L59.5932 9.36759L59.5901 9.37158L59.8262 9.55664ZM64.6387 6.80859L64.6107 6.50977L64.6018 6.51087L64.6387 6.80859ZM67.7969 7.15039L67.701 7.43465L67.702 7.435L67.7969 7.15039ZM69.9434 8.3125L69.7587 8.54899L69.7626 8.55191L69.9434 8.3125ZM70.6133 8.81836L70.8512 9.00104L71.0354 8.76117L70.7941 8.57895L70.6133 8.81836ZM69.5742 10.1719L69.3822 10.4023L69.622 10.6022L69.8122 10.3546L69.5742 10.1719ZM68.918 9.625L69.1101 9.39442L69.1027 9.38866L68.918 9.625ZM67.291 8.75L67.1935 9.03373L67.1975 9.03505L67.291 8.75ZM64.8301 8.49023L64.7957 8.19221L64.7947 8.19233L64.8301 8.49023ZM61.1387 10.5957L60.906 10.4061L60.9007 10.413L61.1387 10.5957ZM60.25 12.25L59.9658 12.1538L59.965 12.1565L60.25 12.25ZM60.0039 14.7383L59.7059 14.7727L59.7059 14.7732L60.0039 14.7383ZM62.082 18.4707L61.8897 18.7011L61.8967 18.7066L62.082 18.4707ZM63.7363 19.373L63.6401 19.6572L63.6441 19.6585L63.7363 19.373ZM69.8613 17.5L70.094 17.6896L70.0984 17.6838L69.8613 17.5ZM70.3809 16.8301L70.5686 16.5961L70.3307 16.4052L70.1438 16.6462L70.3809 16.8301ZM71.6934 17.8828L71.9328 18.0636L72.1083 17.8311L71.8811 17.6488L71.6934 17.8828ZM71.1875 18.5527L71.4201 18.7425L71.4269 18.7335L71.1875 18.5527ZM66.375 21.2871L66.3381 20.9894L66.3378 20.9894L66.375 21.2871ZM65.4863 21.0418C64.7452 21.0418 64.007 20.9198 63.2707 20.6744L63.0809 21.2436C63.8758 21.5086 64.678 21.6418 65.4863 21.6418V21.0418ZM63.2747 20.6758C62.5518 20.4232 61.8702 20.0437 61.2296 19.5346L60.8563 20.0044C61.5464 20.5527 62.2867 20.9661 63.0768 21.2422L63.2747 20.6758ZM61.2348 19.5388C59.7224 18.2815 58.8608 16.7361 58.6337 14.893L58.0382 14.9664C58.285 16.9696 59.2281 18.6508 60.8512 20.0002L61.2348 19.5388ZM58.6336 14.8925C58.5987 14.6134 58.5812 14.3296 58.5812 14.041H57.9813C57.9813 14.3539 58.0002 14.6626 58.0383 14.9669L58.6336 14.8925ZM58.5812 14.041C58.5812 13.2891 58.6992 12.5453 58.936 11.8086L58.3648 11.625C58.1094 12.4195 57.9813 13.2252 57.9813 14.041H58.5812ZM58.935 11.8117C59.1787 11.0806 59.5535 10.3908 60.0623 9.7417L59.5901 9.37158C59.0415 10.0714 58.6325 10.8217 58.3658 11.6219L58.935 11.8117ZM60.0591 9.74567C61.308 8.20652 62.8438 7.33311 64.6755 7.10632L64.6018 6.51087C62.6054 6.75804 60.9328 7.71666 59.5932 9.36761L60.0591 9.74567ZM64.6667 7.10728C64.9497 7.08075 65.2229 7.06758 65.4863 7.06758V6.46758C65.2029 6.46758 64.911 6.48175 64.6107 6.5099L64.6667 7.10728ZM65.4863 7.06758C66.237 7.06758 66.9748 7.18967 67.701 7.43465L67.8928 6.86613C67.1059 6.60069 66.3034 6.46758 65.4863 6.46758V7.06758ZM67.702 7.435C68.4337 7.6789 69.1191 8.0495 69.7587 8.54896L70.128 8.07604C69.4369 7.53644 68.6913 7.1323 67.8917 6.86579L67.702 7.435ZM69.7626 8.55191L70.4325 9.05777L70.7941 8.57895L70.1241 8.07309L69.7626 8.55191ZM70.3753 8.63568L69.3363 9.98919L69.8122 10.3546L70.8512 9.00104L70.3753 8.63568ZM69.7663 9.94141L69.11 9.39453L68.7259 9.85547L69.3822 10.4023L69.7663 9.94141ZM69.1027 9.38866C68.5751 8.97613 68.0021 8.66758 67.3845 8.46495L67.1975 9.03505C67.7466 9.21523 68.2582 9.49002 68.7332 9.86134L69.1027 9.38866ZM67.3885 8.46629C66.7751 8.25543 66.1543 8.14922 65.5273 8.14922V8.74922C66.0853 8.74922 66.6402 8.84352 67.1935 9.03371L67.3885 8.46629ZM65.5273 8.14922C65.2875 8.14922 65.0436 8.16361 64.7957 8.19221L64.8645 8.78826C65.0906 8.76217 65.3115 8.74922 65.5273 8.74922V8.14922ZM64.7947 8.19233C63.2525 8.37547 61.9535 9.12074 60.9061 10.4062L61.3712 10.7852C62.329 9.60973 63.491 8.95135 64.8655 8.78814L64.7947 8.19233ZM60.9007 10.413C60.4893 10.9488 60.1772 11.5293 59.9658 12.1538L60.5342 12.3462C60.7238 11.7858 61.0042 11.2635 61.3766 10.7784L60.9007 10.413ZM59.965 12.1565C59.7638 12.7694 59.6629 13.3934 59.6629 14.0273H60.2629C60.2629 13.4582 60.3533 12.8973 60.535 12.3435L59.965 12.1565ZM59.6629 14.0273C59.6629 14.2759 59.6772 14.5243 59.7059 14.7727L60.3019 14.7039C60.2759 14.4783 60.2629 14.2528 60.2629 14.0273H59.6629ZM59.7059 14.7732C59.8887 16.3311 60.6226 17.6435 61.8898 18.701L62.2743 18.2404C61.1169 17.2745 60.4655 16.0986 60.3019 14.7033L59.7059 14.7732ZM61.8967 18.7066C62.4328 19.1279 63.0142 19.4454 63.6402 19.6572L63.8325 19.0889C63.2735 18.8997 62.7521 18.6156 62.2674 18.2348L61.8967 18.7066ZM63.6441 19.6585C64.2653 19.8592 64.8934 19.9602 65.5273 19.9602V19.3602C64.9582 19.3602 64.3923 19.2697 63.8286 19.0876L63.6441 19.6585ZM65.5273 19.9602C65.75 19.9602 65.9767 19.9456 66.2071 19.9168L66.1327 19.3215C65.9257 19.3473 65.7239 19.3602 65.5273 19.3602V19.9602ZM66.2071 19.9168C67.7485 19.7241 69.0468 18.9746 70.0939 17.6895L69.6288 17.3105C68.6706 18.4864 67.508 19.1496 66.1327 19.3215L66.2071 19.9168ZM70.0984 17.6838L70.6179 17.0139L70.1438 16.6462L69.6243 17.3162L70.0984 17.6838ZM70.1932 17.0641L71.5057 18.1168L71.8811 17.6488L70.5686 16.5961L70.1932 17.0641ZM71.4539 17.702L70.9481 18.372L71.4269 18.7335L71.9328 18.0636L71.4539 17.702ZM70.9551 18.3631C69.7063 19.8932 68.1705 20.7625 66.3381 20.9894L66.4119 21.5848C68.4076 21.3377 70.0801 20.3842 71.4199 18.7424L70.9551 18.3631ZM66.3378 20.9894C66.0587 21.0243 65.775 21.0418 65.4863 21.0418V21.6418C65.7993 21.6418 66.1079 21.6228 66.4122 21.5848L66.3378 20.9894ZM81.8926 21.4102L81.6341 21.5624L81.7226 21.7126L81.8969 21.7101L81.8926 21.4102ZM80.3613 18.8262L80.1022 18.9773L80.1041 18.9805L80.3613 18.8262ZM79.1309 16.7207L78.8694 16.8678L78.8699 16.8686L79.1309 16.7207ZM78.4062 15.4766L78.1452 15.6245L78.1482 15.6296L78.4062 15.4766ZM77.2715 13.5215L77.5298 13.369L77.3202 13.0139L77.0469 13.3226L77.2715 13.5215ZM76.1094 14.834L75.8848 14.6351L75.8094 14.7203V14.834H76.1094ZM76.1094 21.4102V21.7102H76.4094V21.4102H76.1094ZM74.4414 21.4102H74.1414V21.7102H74.4414V21.4102ZM74.4414 1.46289V1.16289H74.1414V1.46289H74.4414ZM76.1094 1.46289H76.4094V1.16289H76.1094V1.46289ZM76.1094 12.3184H75.8094V13.1024L76.3327 12.5186L76.1094 12.3184ZM76.957 11.3613L76.7319 11.163L76.7316 11.1634L76.957 11.3613ZM77.6953 10.5273L77.919 10.7275L77.9258 10.7194L77.6953 10.5273ZM78.1191 10.0215L77.8955 9.82136L77.8897 9.82824L78.1191 10.0215ZM78.8027 9.24219L78.5791 9.04213L78.5762 9.04548L78.8027 9.24219ZM80.293 7.57422L80.2967 7.27424L80.1602 7.27252L80.0692 7.37441L80.293 7.57422ZM82.4668 7.60156L82.6959 7.79525L83.1065 7.30959L82.4706 7.30159L82.4668 7.60156ZM80.8262 9.5293L81.0492 9.73001L81.0524 9.72633L80.8262 9.5293ZM80.2656 10.1582L80.4851 10.363L80.4914 10.3558L80.2656 10.1582ZM79.8691 10.582L79.6503 10.3768L79.643 10.3846L79.6363 10.3929L79.8691 10.582ZM78.4473 12.209L78.2199 12.0133L78.0803 12.1755L78.1882 12.3603L78.4473 12.209ZM83.8066 21.3828L83.8109 21.6828L84.325 21.6754L84.0657 21.2315L83.8066 21.3828ZM82.1511 21.2579C81.4583 20.082 80.9474 19.2198 80.6186 18.6718L80.1041 18.9805C80.4315 19.5263 80.9415 20.3868 81.6341 21.5624L82.1511 21.2579ZM80.6205 18.675C80.3013 18.1279 80.0548 17.7079 79.881 17.4152L79.3651 17.7215C79.5377 18.0122 79.7833 18.4307 80.1022 18.9773L80.6205 18.675ZM79.881 17.4152C79.7088 17.1251 79.5457 16.8443 79.3919 16.5728L78.8699 16.8686C79.0259 17.1439 79.191 17.4282 79.3651 17.7215L79.881 17.4152ZM79.3923 16.5736C79.2266 16.2789 78.9836 15.8619 78.6643 15.3235L78.1482 15.6296C78.4669 16.1668 78.707 16.5792 78.8694 16.8678L79.3923 16.5736ZM78.6673 15.3287C78.3562 14.7798 77.977 14.1265 77.5298 13.369L77.0131 13.674C77.4592 14.4295 77.8365 15.0796 78.1452 15.6245L78.6673 15.3287ZM77.0469 13.3226L75.8848 14.6351L76.334 15.0329L77.4961 13.7204L77.0469 13.3226ZM75.8094 14.834V21.4102H76.4094V14.834H75.8094ZM76.1094 21.1102H74.4414V21.7102H76.1094V21.1102ZM74.7414 21.4102V1.46289H74.1414V21.4102H74.7414ZM74.4414 1.76289H76.1094V1.16289H74.4414V1.76289ZM75.8094 1.46289V12.3184H76.4094V1.46289H75.8094ZM76.3327 12.5186C76.5706 12.2533 76.8539 11.9335 77.1825 11.5593L76.7316 11.1634C76.4039 11.5366 76.1221 11.8548 75.886 12.1181L76.3327 12.5186ZM77.1821 11.5596C77.5193 11.1769 77.7648 10.8996 77.9189 10.7274L77.4717 10.3273C77.316 10.5014 77.0692 10.7801 76.7319 11.163L77.1821 11.5596ZM77.9258 10.7194C78.0621 10.5558 78.2031 10.3875 78.3486 10.2147L77.8897 9.82824C77.7435 10.0018 77.6019 10.1708 77.4648 10.3353L77.9258 10.7194ZM78.3427 10.2215C78.4992 10.0466 78.7282 9.78551 79.0292 9.43889L78.5762 9.04548C78.2757 9.39157 78.049 9.64998 77.8956 9.82145L78.3427 10.2215ZM79.0263 9.44223C79.3363 9.09575 79.8332 8.53966 80.5167 7.77402L80.0692 7.37441C79.3856 8.14003 78.8889 8.69592 78.5792 9.04215L79.0263 9.44223ZM80.2892 7.8742L82.463 7.90154L82.4706 7.30159L80.2967 7.27424L80.2892 7.8742ZM82.2377 7.40787C81.3896 8.41095 80.8443 9.05171 80.5999 9.33226L81.0524 9.72633C81.3002 9.44178 81.8486 8.79738 82.6959 7.79525L82.2377 7.40787ZM80.6032 9.32861C80.3568 9.60234 80.1689 9.81322 80.0398 9.96065L80.4914 10.3558C80.6176 10.2115 80.8033 10.0031 81.0492 9.72999L80.6032 9.32861ZM80.0463 9.95351C79.9189 10.0901 79.7869 10.2312 79.6503 10.3768L80.088 10.7872C80.2249 10.6412 80.3572 10.4998 80.4849 10.3629L80.0463 9.95351ZM79.6363 10.3929C79.5227 10.5326 79.3445 10.7377 79.0993 11.0102L79.5453 11.4116C79.7922 11.1373 79.9786 10.9231 80.102 10.7712L79.6363 10.3929ZM79.0993 11.0102C78.8512 11.2859 78.558 11.6203 78.2199 12.0133L78.6747 12.4047C79.011 12.0138 79.3011 11.6829 79.5453 11.4116L79.0993 11.0102ZM78.1882 12.3603L83.5476 21.5341L84.0657 21.2315L78.7063 12.0577L78.1882 12.3603ZM83.8024 21.0828L81.8883 21.1102L81.8969 21.7101L83.8109 21.6828L83.8024 21.0828Z" fill="#1A1A1A"/>
</svg>
