<svg width="20" height="20" viewBox="0 0 20 20" fill="none" xmlns="http://www.w3.org/2000/svg">
<path d="M19.1667 14.51V17.26C19.1677 17.5153 19.1154 17.768 19.0132 18.0019C18.9109 18.2358 18.7609 18.4458 18.5728 18.6184C18.3846 18.791 18.1625 18.9224 17.9207 19.0042C17.6789 19.0859 17.4226 19.1163 17.1684 19.0933C14.3476 18.7868 11.6381 17.823 9.25752 16.2792C7.0427 14.8718 5.16491 12.994 3.75752 10.7792C2.20833 8.38778 1.24424 5.66509 0.943353 2.83167C0.920446 2.57819 0.950572 2.3227 1.03181 2.0815C1.11305 1.84029 1.24363 1.61864 1.41522 1.43066C1.58682 1.24268 1.79567 1.09249 2.0285 0.989653C2.26132 0.886814 2.513 0.833581 2.76752 0.833341H5.51752C5.96238 0.828962 6.39366 0.986496 6.73097 1.27658C7.06827 1.56666 7.28859 1.9695 7.35085 2.41001C7.46692 3.29007 7.68218 4.15417 7.99252 4.98584C8.11585 5.31394 8.14254 5.67051 8.06943 6.01331C7.99633 6.35612 7.82648 6.67078 7.58002 6.92001L6.41585 8.08417C7.72078 10.3791 9.62094 12.2792 11.9159 13.5842L13.08 12.42C13.3293 12.1736 13.6439 12.0037 13.9867 11.9306C14.3295 11.8575 14.6861 11.8842 15.0142 12.0075C15.8459 12.3178 16.71 12.5331 17.59 12.6492C18.0353 12.712 18.442 12.9363 18.7327 13.2794C19.0234 13.6225 19.1778 14.0605 19.1667 14.51Z" stroke="#1A1A1A" stroke-width="1.5" stroke-linecap="round" stroke-linejoin="round"/>
</svg>
