<svg width="28" height="31" viewBox="0 0 28 31" fill="none" xmlns="http://www.w3.org/2000/svg">
<path d="M21.5213 11.0583C20.5442 9.75517 19.3861 10.3546 18.5832 11.0602C18.1633 11.441 18.0064 12.0676 18.0064 12.0676C17.2925 11.9092 16.8814 11.7661 16.1927 12.2502C15.5483 12.6914 15.2712 13.4392 15.2712 13.4392C14.5134 12.995 13.6142 13.7735 13.6142 13.7735C13.3021 14.1612 13.1544 13.9353 12.9822 13.637C12.5684 12.8904 12.1287 12.1587 11.7019 11.4196C11.41 10.9139 10.9943 10.5833 10.4291 10.4428C9.55709 10.2201 8.78346 10.4074 8.19606 11.1269C7.52739 11.9452 7.51271 12.8182 8.01632 13.7204C8.8718 15.2321 9.74573 16.7158 10.6142 18.22C11.2505 19.3222 11.8944 20.4374 12.5308 21.5396C13.1222 22.5641 13.7062 23.5755 14.5993 24.3738C16.6207 26.1979 19.8407 26.5346 22.2322 25.1366C24.6236 23.7386 25.983 20.7926 25.3177 18.2028C24.6205 15.5278 22.9856 13.325 21.5213 11.0583ZM23.5102 17.2581C24.7206 19.6541 23.7753 22.5686 21.4671 23.9012C19.1589 25.2339 16.1547 24.5824 14.6925 22.3491C13.7163 20.8379 12.8752 19.2314 11.9693 17.6624C11.9564 17.6699 11.9564 17.6699 11.9434 17.6774C11.0749 16.1732 10.214 14.6819 9.34553 13.1777C9.06853 12.698 8.89927 12.2251 9.50325 11.8937C10.0554 11.5922 10.3857 11.9548 10.6477 12.4086C11.6509 14.1462 12.6542 15.8838 13.6574 17.6215C13.9119 18.0623 14.2054 18.4808 14.7704 18.1718C15.3485 17.8554 15.1533 17.3975 14.8913 16.9436C14.6891 16.5935 14.474 16.2509 14.3053 15.8988C14.1196 15.4873 14.1624 15.0822 14.5848 14.8556C14.9943 14.6365 15.3644 14.7686 15.604 15.1835C15.8286 15.5726 16.0402 15.9691 16.2778 16.3506C16.5154 16.7321 16.8302 16.948 17.2786 16.7064C17.7659 16.4424 17.7343 16.0284 17.5077 15.6059C17.311 15.2354 17.081 14.8668 16.8713 14.5037C16.6168 14.0628 16.6466 13.6653 17.08 13.3977C17.5338 13.1357 17.8951 13.3421 18.1606 13.7421C18.3832 14.0977 18.6003 14.4737 18.7969 14.8443C19.044 15.2722 19.3922 15.4861 19.8516 15.2036C20.272 14.9436 20.2629 14.5685 20.0233 14.1535C19.7987 13.7645 19.5612 13.383 19.3495 12.9865C19.1509 12.5825 19.1602 12.1794 19.5881 11.9324C20.029 11.6778 20.4067 11.8229 20.6612 12.2638C21.64 13.929 22.6501 15.5589 23.5102 17.2581Z" fill="#9306FF"/>
<path d="M8.34184 17.1288C8.12139 17.2561 7.85402 17.2721 7.62502 17.145C6.8078 16.7178 6.1177 16.0615 5.64604 15.2446C4.29096 12.8975 5.09661 9.89081 7.44368 8.53573C9.79075 7.18065 12.7975 7.9863 14.1525 10.3334C14.3622 10.6965 14.2416 11.1464 13.8785 11.3561C13.5154 11.5657 13.0654 11.4451 12.8558 11.082C11.9125 9.44816 9.82621 8.88914 8.19234 9.83246C6.55847 10.7758 6.00694 12.875 6.94277 14.4959C7.26469 15.0535 7.74222 15.5213 8.30999 15.8159C8.67669 16.0019 8.81801 16.4562 8.63206 16.8229C8.55279 16.9552 8.45854 17.0614 8.34184 17.1288Z" fill="#9306FF"/>
<path d="M7.26736 19.0113C7.04692 19.1386 6.77955 19.1546 6.55055 19.0275C5.35914 18.4013 4.36317 17.4549 3.68188 16.2748C1.72038 12.8774 2.88775 8.52077 6.28516 6.55927C9.68258 4.59777 14.0522 5.75765 16.0212 9.16803C16.2308 9.53111 16.1103 9.9811 15.7472 10.1907C15.3841 10.4003 14.9341 10.2798 14.7245 9.91669C13.1747 7.23248 9.73101 6.29877 7.03383 7.85599C4.33664 9.41321 3.42887 12.842 4.98609 15.5392C5.52513 16.4728 6.30105 17.2178 7.243 17.7113C7.6097 17.8973 7.75102 18.3517 7.56507 18.7184C7.4858 18.8506 7.38407 18.9439 7.26736 19.0113Z" fill="#9306FF"/>
</svg>
