<svg width="18" height="16" viewBox="0 0 18 16" fill="none" xmlns="http://www.w3.org/2000/svg">
<path d="M17.2751 2.94999C16.6426 3.21232 15.9751 3.38077 15.2938 3.44999C15.9792 3.02447 16.5028 2.38212 16.7813 1.62499C16.114 2.02046 15.3852 2.30143 14.6251 2.45624C14.3285 2.11309 13.9607 1.83862 13.5473 1.6519C13.134 1.46519 12.6849 1.37069 12.2313 1.37499C11.7904 1.36754 11.3524 1.44755 10.9426 1.61037C10.5328 1.7732 10.1594 2.01562 9.8438 2.32363C9.52824 2.63163 9.27684 2.99912 9.10414 3.40486C8.93143 3.8106 8.84084 4.24653 8.8376 4.68749C8.82402 4.93817 8.85146 5.1894 8.91885 5.43124C7.60811 5.39192 6.32159 5.06803 5.14849 4.48202C3.97538 3.896 2.94375 3.06189 2.1251 2.03749C1.77695 2.51765 1.6008 3.10114 1.6251 3.69374C1.63003 4.24957 1.76896 4.79601 2.03008 5.28671C2.29121 5.77741 2.66683 6.19789 3.1251 6.51249C2.60205 6.43331 2.09666 6.26415 1.63135 6.01249V6.12499C1.58527 6.88565 1.82213 7.63647 2.29635 8.233C2.77057 8.82952 3.44864 9.22959 4.2001 9.35624C3.90144 9.4272 3.59409 9.45457 3.2876 9.43749C3.06368 9.45024 2.83929 9.42272 2.6251 9.35624C2.8339 10.0235 3.24886 10.6074 3.81035 11.024C4.37184 11.4407 5.05095 11.6686 5.7501 11.675C4.54028 12.6016 3.05516 13.0966 1.53135 13.0812C1.26009 13.093 0.988547 13.0657 0.725098 13C2.45956 14.1583 4.51605 14.738 6.6001 14.6562C12.8063 14.6562 15.6251 9.51874 15.6251 5.13124V4.68749C16.2782 4.2158 16.8378 3.62658 17.2751 2.94999V2.94999Z" stroke="#501380" stroke-linecap="round" stroke-linejoin="round"/>
</svg>
